<svg width="64" height="64" viewBox="0 0 64 64" fill="none" xmlns="http://www.w3.org/2000/svg">
<path d="M0 32C0 14.3269 14.3269 0 32 0C49.6731 0 64 14.3269 64 32C64 49.6731 49.6731 64 32 64C14.3269 64 0 49.6731 0 32Z" fill="#DEDBFF"/>
<path d="M46.4 17H17.6C16.6452 17 15.7295 17.4214 15.0544 18.1716C14.3793 18.9217 14 19.9391 14 21V43C14 44.0609 14.3793 45.0783 15.0544 45.8284C15.7295 46.5786 16.6452 47 17.6 47H46.4C47.3548 47 48.2705 46.5786 48.9456 45.8284C49.6207 45.0783 50 44.0609 50 43V21C50 19.9391 49.6207 18.9217 48.9456 18.1716C48.2705 17.4214 47.3548 17 46.4 17ZM45.4154 21L32.0774 33.568L18.6008 21H45.4154ZM17.6 43V25.29L29.84 36.69C30.4559 37.2047 31.206 37.482 31.9766 37.48C32.7946 37.4764 33.5892 37.1758 34.2392 36.624L46.4 25.29V43H17.6Z" fill="#382CA6"/>
</svg>
