<svg width="29" height="36" viewBox="0 0 29 36" fill="none" xmlns="http://www.w3.org/2000/svg">
<g id="Group">
<path id="Vector" d="M20.1209 18.0016L26.5956 11.5268C30.8476 7.27484 27.8377 0 21.821 0H0.00292969V4.23264H21.5726C23.7696 4.23264 24.8697 6.89094 23.3179 8.44269L13.7622 17.9984L23.2663 27.5025C24.8406 29.0768 23.7244 31.7706 21.4984 31.7706H8.49079L0.00615893 23.286V29.6478L6.35834 36H21.7307C27.7796 36 30.8121 28.6832 26.5343 24.4054L20.1241 17.9952L20.1209 18.0016Z" fill="#5C4AFF"/>
<path id="Vector_2" d="M7.41035 17.9984L16.9402 8.46851H10.6009L4.24232 14.8304L4.23264 14.8207V8.46851H0V16.9402V16.9531L10.5977 27.5476H10.6074H16.9596L7.41035 17.9984Z" fill="#5C4AFF"/>
</g>
</svg>
