<svg width="85" height="22" viewBox="0 0 85 22" fill="none" xmlns="http://www.w3.org/2000/svg">
<g id="Group">
<path id="Vector" d="M5.44752 13.1137L13.8612 5.82271L9.01559 5.86142L3.66994 10.5231V0.525452H0.443848V21.0241H3.66994V15.7365L9.55757 21.0241H14.2483L5.44752 13.1137Z" fill="#5C4AFF"/>
<path id="Vector_2" d="M37.312 13.0265L42.0414 5.83557H38.1604L35.3699 10.194L32.5567 5.83557H28.6757L33.431 13.0524L28.1821 21.024H32.0373L35.3731 15.8784L38.7315 21.024H42.6447L37.312 13.0265Z" fill="#5C4AFF"/>
<path id="Vector_3" d="M57.9006 7.82605C56.394 6.26462 54.5164 5.47423 52.3195 5.47423C50.5387 5.47423 48.9482 6.04848 47.5739 7.18406V0.528625H44.3994V21.0272H47.5739V19.6497C48.9417 20.8756 50.5193 21.4918 52.2808 21.4918C54.4519 21.4918 56.3263 20.6982 57.8587 19.1271C59.3878 17.5624 60.1621 15.659 60.1621 13.4685C60.1621 11.278 59.4007 9.38103 57.9006 7.82605ZM48.8514 16.9043C47.9223 15.93 47.4707 14.7654 47.4707 13.3524C47.4707 11.9393 47.9159 10.807 48.8288 9.8843C49.7418 8.96164 50.8484 8.51644 52.2162 8.51644C53.5841 8.51644 54.6713 8.9939 55.5746 9.97463C56.4908 10.9683 56.936 12.1006 56.936 13.4298C56.936 14.7589 56.4811 15.8881 55.5423 16.8785C54.6132 17.8624 53.5163 18.3431 52.1904 18.3431C50.8645 18.3431 49.7709 17.8721 48.8514 16.9043Z" fill="#5C4AFF"/>
<path id="Vector_4" d="M74.4569 5.83556V7.20344C73.1374 6.05495 71.576 5.47424 69.8016 5.47424C67.5982 5.47424 65.7045 6.26464 64.1721 7.82284C62.6429 9.37782 61.8687 11.2748 61.8687 13.4556C61.8687 15.6365 62.6397 17.5398 64.156 19.111C65.6787 20.6885 67.5369 21.4886 69.6823 21.4886C71.4373 21.4886 73.0342 20.8821 74.4537 19.682V21.0208H77.6281V5.82912H74.4537L74.4569 5.83556ZM69.8403 18.4206C68.5305 18.4206 67.4369 17.9463 66.4981 16.9688C65.5529 15.9849 65.0947 14.8557 65.0947 13.5201C65.0947 12.1845 65.5464 11.0554 66.4755 10.0682C67.395 9.09393 68.4918 8.61969 69.8274 8.61969C71.163 8.61969 72.2631 9.07779 73.1858 10.023C74.1117 10.9715 74.5601 12.12 74.5601 13.533C74.5601 14.9461 74.102 16.0849 73.1632 17.0237C72.2244 17.9625 71.1372 18.4206 69.8403 18.4206Z" fill="#5C4AFF"/>
<path id="Vector_5" d="M84.1417 0.525452H80.9414V21.0241H84.1417V0.525452Z" fill="#5C4AFF"/>
<path id="Vector_6" d="M25.2266 15.488C24.133 17.456 22.6167 18.4206 20.5972 18.4206C19.4035 18.4206 18.4035 18.0076 17.5421 17.1624C16.7936 16.4268 16.3484 15.501 16.1903 14.3428H28.5269L28.514 13.7943C28.4592 11.2457 27.6817 9.20039 26.2074 7.71638C24.7266 6.22915 22.8651 5.47424 20.6714 5.47424C18.4776 5.47424 16.6033 6.27109 15.1128 7.84543C13.6321 9.41008 12.8804 11.3102 12.8804 13.4975C12.8804 15.6848 13.6256 17.5818 15.0999 19.1368C16.5807 20.7014 18.4809 21.4918 20.7488 21.4918C22.3845 21.4918 23.8168 21.1015 25.004 20.3304C26.1429 19.5949 27.1397 18.4561 27.9753 16.9527L25.2234 15.488H25.2266ZM20.6746 8.61969C21.7586 8.61969 22.6877 8.91649 23.5136 9.52622C24.1556 9.99723 24.6072 10.607 24.8847 11.378H16.6226C17.4001 9.52623 18.7293 8.62292 20.6746 8.62292V8.61969Z" fill="#5C4AFF"/>
</g>
</svg>
