<svg width="122" height="36" viewBox="0 0 122 36" fill="none" xmlns="http://www.w3.org/2000/svg">
<path d="M20.2634 18.0016L26.7841 11.5268C31.0662 7.27484 28.035 0 21.9757 0H0.00292969V4.23264H21.7255C23.938 4.23264 25.0459 6.89094 23.4832 8.44269L13.8598 17.9984L23.4312 27.5025C25.0167 29.0768 23.8925 31.7706 21.6508 31.7706H8.55095L0.00618182 23.286V29.6478L6.40339 36H21.8847C27.9765 36 31.0305 28.6832 26.7224 24.4054L20.2667 17.9952L20.2634 18.0016Z" fill="white"/>
<path d="M7.46287 17.9984L17.0603 8.46851H10.6761L4.27239 14.8304L4.26264 14.8207V8.46851H0V16.9402V16.9531L10.6728 27.5476H10.6826H17.0798L7.46287 17.9984Z" fill="white"/>
<path d="M42.7481 20.1137L51.2214 12.8227L46.3415 12.8614L40.9579 17.5231V7.52545H37.709V28.0241H40.9579V22.7365L46.8873 28.0241H51.6113L42.7481 20.1137Z" fill="white"/>
<path d="M74.8381 20.0266L79.6011 12.8356H75.6926L72.8823 17.1941L70.0491 12.8356H66.1407L70.9296 20.0524L65.6436 28.0241H69.5261L72.8855 22.8784L76.2677 28.0241H80.2087L74.8381 20.0266Z" fill="white"/>
<path d="M95.5735 14.826C94.0562 13.2646 92.1653 12.4742 89.9528 12.4742C88.1593 12.4742 86.5576 13.0484 85.1735 14.184V7.52859H81.9766V28.0272H85.1735V26.6497C86.5511 27.8756 88.1398 28.4918 89.9138 28.4918C92.1003 28.4918 93.988 27.6981 95.5312 26.127C97.0712 24.5624 97.851 22.659 97.851 20.4685C97.851 18.2779 97.0842 16.381 95.5735 14.826ZM86.4601 23.9043C85.5244 22.93 85.0696 21.7654 85.0696 20.3523C85.0696 18.9393 85.5179 17.8069 86.4374 16.8843C87.3568 15.9616 88.4712 15.5164 89.8488 15.5164C91.2263 15.5164 92.3213 15.9939 93.231 16.9746C94.1537 17.9682 94.602 19.1006 94.602 20.4297C94.602 21.7589 94.1439 22.888 93.1985 23.8784C92.2628 24.8624 91.1581 25.3431 89.8228 25.3431C88.4875 25.3431 87.3861 24.8721 86.4601 23.9043Z" fill="white"/>
<path d="M112.247 12.8355V14.2034C110.918 13.0549 109.345 12.4742 107.559 12.4742C105.339 12.4742 103.432 13.2646 101.889 14.8228C100.349 16.3778 99.5693 18.2747 99.5693 20.4556C99.5693 22.6364 100.346 24.5398 101.873 26.1109C103.406 27.6885 105.278 28.4886 107.438 28.4886C109.206 28.4886 110.814 27.882 112.244 26.6819V28.0208H115.441V12.8291H112.244L112.247 12.8355ZM107.598 25.4205C106.278 25.4205 105.177 24.9463 104.232 23.9688C103.28 22.9848 102.818 21.8557 102.818 20.5201C102.818 19.1845 103.273 18.0554 104.209 17.0682C105.135 16.0939 106.239 15.6197 107.585 15.6197C108.93 15.6197 110.037 16.0778 110.967 17.023C111.899 17.9715 112.351 19.12 112.351 20.533C112.351 21.946 111.889 23.0848 110.944 24.0236C109.999 24.9624 108.904 25.4205 107.598 25.4205Z" fill="white"/>
<path d="M122 7.52545H118.777V28.0241H122V7.52545Z" fill="white"/>
<path d="M62.6672 22.488C61.5658 24.4559 60.0388 25.4205 58.0049 25.4205C56.8028 25.4205 55.7956 25.0076 54.9282 24.1624C54.1744 23.4268 53.726 22.5009 53.5668 21.3428H65.9909L65.9779 20.7943C65.9226 18.2457 65.1396 16.2004 63.6549 14.7164C62.1636 13.2291 60.2889 12.4742 58.0796 12.4742C55.8703 12.4742 53.9827 13.2711 52.4817 14.8454C50.9904 16.4101 50.2334 18.3102 50.2334 20.4975C50.2334 22.6848 50.9839 24.5818 52.4687 26.1367C53.96 27.7014 55.8736 28.4918 58.1576 28.4918C59.8048 28.4918 61.2474 28.1014 62.443 27.3304C63.5899 26.5948 64.5938 25.456 65.4353 23.9527L62.6639 22.488H62.6672ZM58.0829 15.6197C59.1745 15.6197 60.1102 15.9165 60.942 16.5262C61.5885 16.9972 62.0434 17.6069 62.3228 18.378H54.0022C54.7852 16.5262 56.1238 15.6229 58.0829 15.6229V15.6197Z" fill="white"/>
</svg>
